<?xml version="1.0" encoding="iso-8859-1"?>
<!-- Generator: Adobe Illustrator 19.0.0, SVG Export Plug-In . SVG Version: 6.00 Build 0)  -->
<svg version="1.1" id="Layer_1" xmlns="http://www.w3.org/2000/svg" xmlns:xlink="http://www.w3.org/1999/xlink" x="0px" y="0px"
	 viewBox="0 0 512.853 512.853" style="enable-background:new 0 0 512.853 512.853;" xml:space="preserve">
<g transform="translate(1 1)">
	<g>
		<g>
			<path d="M328.387,110.36h-61.44c-11.093,0-20.48,9.387-20.48,20.48v78.507c0,11.093,9.387,20.48,20.48,20.48h61.44
				c11.093,0,20.48-9.387,20.48-20.48V130.84C348.867,119.747,339.48,110.36,328.387,110.36z M331.8,209.347
				c0,1.707-1.707,3.413-3.413,3.413h-61.44c-1.707,0-3.413-1.707-3.413-3.413V130.84c0-1.707,1.707-3.413,3.413-3.413h61.44
				c1.707,0,3.413,1.707,3.413,3.413V209.347z"/>
			<path d="M200.387,110.36h-61.44c-11.093,0-20.48,9.387-20.48,20.48v78.507c0,11.093,9.387,20.48,20.48,20.48h61.44
				c11.093,0,20.48-9.387,20.48-20.48V130.84C220.867,119.747,211.48,110.36,200.387,110.36z M203.8,209.347
				c0,1.707-1.707,3.413-3.413,3.413h-61.44c-1.707,0-3.413-1.707-3.413-3.413V130.84c0-1.707,1.707-3.413,3.413-3.413h61.44
				c1.707,0,3.413,1.707,3.413,3.413V209.347z"/>
			<path d="M408.6,357.827c-9.387,0-17.067,7.68-17.067,17.067s7.68,17.067,17.067,17.067s17.067-7.68,17.067-17.067
				S417.987,357.827,408.6,357.827z"/>
			<path d="M101.4,357.827c-9.387,0-17.067,7.68-17.067,17.067s7.68,17.067,17.067,17.067c9.387,0,17.067-7.68,17.067-17.067
				S110.787,357.827,101.4,357.827z"/>
			<path d="M504.173,167.533l-74.24-81.92c-5.973-5.973-13.653-9.387-21.333-9.387h-384c-13.653,0-25.6,11.093-25.6,25.6v8.533
				v119.467v128c0,13.653,11.093,25.6,25.6,25.6h17.669c4.075,29.155,28.753,51.2,59.131,51.2c30.378,0,55.056-22.045,59.131-51.2
				h188.938c4.075,29.155,28.753,51.2,59.131,51.2s55.056-22.045,59.131-51.2H485.4c13.653,0,25.6-11.947,26.453-25.6V187.16
				C511.853,179.48,509.293,172.653,504.173,167.533z M465.489,151.321l24.177,27.306c2.56,1.707,3.413,5.12,3.413,7.68v26.453
				H391.533v-85.333h52.053L465.489,151.321z M16.067,127.427h58.027c0.853,0,1.707,0.853,1.707,1.707v81.92
				c0,0.853-0.853,1.707-1.707,1.707H16.067V127.427z M101.4,417.56c-23.893,0-42.667-18.773-42.667-42.667
				s18.773-42.667,42.667-42.667c23.893,0,42.667,18.773,42.667,42.667S125.293,417.56,101.4,417.56z M408.6,417.56
				c-23.893,0-42.667-18.773-42.667-42.667s18.773-42.667,42.667-42.667c23.893,0,42.667,18.773,42.667,42.667
				S432.493,417.56,408.6,417.56z M484.547,366.36h-16.816c-4.075-29.155-28.753-51.2-59.131-51.2c-0.276,0-0.548,0.017-0.823,0.02
				c-0.295-0.004-0.588-0.02-0.883-0.02c-29.867,0-54.613,22.187-58.88,51.2H160.531c-4.075-29.155-28.753-51.2-59.131-51.2
				c-0.138,0-0.274,0.009-0.412,0.01c-0.148-0.001-0.293-0.01-0.441-0.01c-29.867,0-54.613,22.187-58.88,51.2H24.6
				c-4.267,0-8.533-3.413-8.533-8.533v-59.733h298.667c5.12,0,8.533-3.413,8.533-8.533c0-5.12-3.413-8.533-8.533-8.533H16.067
				V263.96H280.6c5.12,0,8.533-3.413,8.533-8.533s-3.413-8.533-8.533-8.533H16.067v-17.067h58.027
				c10.24,0,18.773-8.533,18.773-18.773v-81.92c0-10.24-8.533-18.773-18.773-18.773H16.067v-8.533c0-4.267,4.267-8.533,8.533-8.533
				h384c2.56,0,5.973,1.707,8.533,3.413l12.089,13.653h-40.249c-7.68,0-14.507,6.827-14.507,14.507v90.453
				c0,7.68,6.827,14.507,14.507,14.507H493.08v42.667h-41.813c-5.12,0-8.533,3.413-8.533,8.533c0,5.12,3.413,8.533,8.533,8.533
				h41.813v68.267C493.08,362.093,489.667,366.36,484.547,366.36z"/>
		</g>
	</g>
</g>
<g>
</g>
<g>
</g>
<g>
</g>
<g>
</g>
<g>
</g>
<g>
</g>
<g>
</g>
<g>
</g>
<g>
</g>
<g>
</g>
<g>
</g>
<g>
</g>
<g>
</g>
<g>
</g>
<g>
</g>
</svg>
